/* XPM */
static char * close_active_xpm[] = {
"10 12 120 2",
"  	c None",
". 	c #EAEAE9",
"+ 	c #DADADA",
"@ 	c #A5A2A5",
"# 	c #615F62",
"$ 	c #403D3F",
"% 	c #403D3E",
"& 	c #676665",
"* 	c #9C9B9A",
"= 	c #DBDBDA",
"- 	c #E9EAE9",
"; 	c #E3E3E2",
"> 	c #918888",
", 	c #6D5D61",
"' 	c #B4A2A6",
") 	c #E2CFD3",
"! 	c #DDCDD1",
"~ 	c #B4A8AB",
"{ 	c #6B5E60",
"] 	c #8F8A89",
"^ 	c #E1E5E2",
"/ 	c #AD9C9D",
"( 	c #6C4644",
"_ 	c #9F6F6C",
": 	c #DAAAA7",
"< 	c #E8B8B6",
"[ 	c #E9BCB9",
"} 	c #D5A9A5",
"| 	c #A37272",
"1 	c #6F474A",
"2 	c #A9A19D",
"3 	c #7F5254",
"4 	c #8A3532",
"5 	c #AD413D",
"6 	c #BF5852",
"7 	c #CA645E",
"8 	c #C9645D",
"9 	c #AC4443",
"0 	c #8B353B",
"a 	c #785251",
"b 	c #6C2222",
"c 	c #AD322D",
"d 	c #C1362E",
"e 	c #D65348",
"f 	c #D8594D",
"g 	c #D35448",
"h 	c #D45046",
"i 	c #C03631",
"j 	c #A82F30",
"k 	c #662220",
"l 	c #771C1A",
"m 	c #C6423A",
"n 	c #D9594C",
"o 	c #E26D5C",
"p 	c #EA7B68",
"q 	c #ED7C6A",
"r 	c #E56B5C",
"s 	c #DA5649",
"t 	c #C4433A",
"u 	c #6F201B",
"v 	c #8E2B25",
"w 	c #D94D47",
"x 	c #ED6D65",
"y 	c #F68477",
"z 	c #FB9282",
"A 	c #FB9182",
"B 	c #F68075",
"C 	c #EB6B5E",
"D 	c #D05240",
"E 	c #833027",
"F 	c #954944",
"G 	c #CA544E",
"H 	c #F98178",
"I 	c #FF948D",
"J 	c #FF9F97",
"K 	c #FF9F96",
"L 	c #FE978A",
"M 	c #F57C71",
"N 	c #C95149",
"O 	c #834D40",
"P 	c #9B716E",
"Q 	c #AE514E",
"R 	c #EC7C73",
"S 	c #FAAC99",
"T 	c #F5B9A1",
"U 	c #FBB5A0",
"V 	c #FFA496",
"W 	c #EC7873",
"X 	c #AB4F4C",
"Y 	c #987970",
"Z 	c #A89B9B",
"` 	c #885654",
" .	c #A2564E",
"..	c #D17F74",
"+.	c #F29C90",
"@.	c #F09A91",
"#.	c #D27D77",
"$.	c #A35755",
"%.	c #855857",
"&.	c #A89E9A",
"*.	c #CDCBCD",
"=.	c #968E8E",
"-.	c #71645D",
";.	c #715149",
">.	c #855852",
",.	c #815751",
"'.	c #70514F",
").	c #735F60",
"!.	c #988F91",
"~.	c #CCCCCB",
"{.	c #E7E6E7",
"].	c #D1D5D6",
"^.	c #9DA8A8",
"/.	c #757D7B",
"(.	c #6A6F6C",
"_.	c #6D7270",
":.	c #7E8485",
"<.	c #A3A7AB",
"[.	c #D1D3D4",
"}.	c #E6E6E6",
". + @ # $ % & * = - ",
"; > , ' ) ! ~ { ] ^ ",
"/ ( _ : < [ } | 1 2 ",
"3 4 5 6 7 8 6 9 0 a ",
"b c d e f g h i j k ",
"l m n o p q r s t u ",
"v w x y z A B C D E ",
"F G H I J K L M N O ",
"P Q R S T U V W X Y ",
"Z `  ...+.@.#.$.%.&.",
"*.=.-.;.>.,.'.).!.~.",
"{.].^./.(._.:.<.[.}."};
