/* XPM */
static char * menu_pressed_xpm[] = {
"10 12 116 2",
"  	c None",
". 	c #ECECEC",
"+ 	c #D8DADC",
"@ 	c #91A3AF",
"# 	c #3D6687",
"$ 	c #214156",
"% 	c #20445D",
"& 	c #3B6586",
"* 	c #8E9FAA",
"= 	c #D6D9DB",
"- 	c #E2E5E6",
"; 	c #718B9E",
"> 	c #2C6791",
", 	c #78ACD2",
"' 	c #B1D8F0",
") 	c #B1D7F0",
"! 	c #7CAFD4",
"~ 	c #2E658D",
"{ 	c #E0E2E4",
"] 	c #98A3AB",
"^ 	c #20567D",
"/ 	c #4884B4",
"( 	c #97C6E7",
"_ 	c #92C2E4",
": 	c #4B87B7",
"< 	c #1D537B",
"[ 	c #949FA8",
"} 	c #385B73",
"| 	c #1E5F90",
"1 	c #407DB1",
"2 	c #5D95C4",
"3 	c #619AC8",
"4 	c #649CCA",
"5 	c #5A94C4",
"6 	c #3F7DB1",
"7 	c #246495",
"8 	c #345870",
"9 	c #113F5F",
"0 	c #2E6C9F",
"a 	c #3D78A9",
"b 	c #528AB8",
"c 	c #5990BD",
"d 	c #5C93C0",
"e 	c #548CBA",
"f 	c #417BAC",
"g 	c #2E6DA0",
"h 	c #114264",
"i 	c #12486F",
"j 	c #2F608B",
"k 	c #1D476A",
"l 	c #264F6F",
"m 	c #2F5673",
"n 	c #2E5674",
"o 	c #2C5474",
"p 	c #2B577D",
"q 	c #427AAA",
"r 	c #134D75",
"s 	c #1C5C8A",
"t 	c #3B6C94",
"u 	c #315977",
"v 	c #3D617A",
"w 	c #41647B",
"x 	c #45677C",
"y 	c #3E627C",
"z 	c #406B8B",
"A 	c #5087B4",
"B 	c #20608E",
"C 	c #386D98",
"D 	c #5A91BF",
"E 	c #86B6D8",
"F 	c #9BC6E0",
"G 	c #B6D7E7",
"H 	c #B7D8E8",
"I 	c #A6CDE4",
"J 	c #8EBDDD",
"K 	c #5F97C5",
"L 	c #396D99",
"M 	c #6786A0",
"N 	c #447FB2",
"O 	c #90C0E2",
"P 	c #C4E6F7",
"Q 	c #C6E7F7",
"R 	c #C5E7F7",
"S 	c #C2E5F6",
"T 	c #98C6E5",
"U 	c #4985B6",
"V 	c #6989A3",
"W 	c #95A0AA",
"X 	c #3B709C",
"Y 	c #4C88B7",
"Z 	c #B1D8EF",
"` 	c #B3D8EF",
" .	c #8BBADC",
"..	c #528CBB",
"+.	c #3A6F9A",
"@.	c #919DA6",
"#.	c #CBCDCE",
"$.	c #7D94A8",
"%.	c #356E9A",
"&.	c #2B6B9B",
"*.	c #3B79A5",
"=.	c #3F7DA8",
"-.	c #2B6B9C",
";.	c #336B99",
">.	c #758DA0",
",.	c #BDBFC1",
"'.	c #E7E7E7",
").	c #D2D4D6",
"!.	c #94A5B2",
"~.	c #537FA2",
"{.	c #326FA0",
"].	c #316D9E",
"^.	c #5682A4",
"/.	c #8F9FAC",
"(.	c #C5C7C9",
"_.	c #E2E2E2",
". + @ # $ % & * = . ",
"- ; > , ' ) ! ~ ; { ",
"] ^ / ( ' ' _ : < [ ",
"} | 1 2 3 4 5 6 7 8 ",
"9 0 a b c d e f g h ",
"i j k l m n o p q r ",
"s t u v w x y z A B ",
"C D E F G H I J K L ",
"M N O P Q R S T U V ",
"W X Y J Z `  ...+.@.",
"#.$.%.&.*.=.-.;.>.,.",
"'.).!.~.{.].^./.(._."};
