/* XPM */
static char * menu_active_xpm[] = {
"10 12 114 2",
"  	c None",
". 	c #ECECEC",
"+ 	c #D8DADC",
"@ 	c #91A3AF",
"# 	c #3D6687",
"$ 	c #214156",
"% 	c #20445D",
"& 	c #3B6586",
"* 	c #8E9FAA",
"= 	c #D6D9DB",
"- 	c #E2E5E6",
"; 	c #718B9E",
"> 	c #2C6791",
", 	c #78ACD2",
"' 	c #B1D8F0",
") 	c #B1D7F0",
"! 	c #7CAFD4",
"~ 	c #2E658D",
"{ 	c #E0E2E4",
"] 	c #98A3AB",
"^ 	c #20567D",
"/ 	c #4884B4",
"( 	c #97C6E7",
"_ 	c #92C2E4",
": 	c #4B87B7",
"< 	c #1D537B",
"[ 	c #949FA8",
"} 	c #385B73",
"| 	c #1E5F90",
"1 	c #407DB1",
"2 	c #5D95C4",
"3 	c #619AC8",
"4 	c #649CCA",
"5 	c #5A94C4",
"6 	c #3F7DB1",
"7 	c #246495",
"8 	c #345870",
"9 	c #123F5F",
"0 	c #3271A5",
"a 	c #4581B4",
"b 	c #5C95C5",
"c 	c #659DCB",
"d 	c #679FCE",
"e 	c #5E97C7",
"f 	c #4883B6",
"g 	c #3170A3",
"h 	c #114264",
"i 	c #144B73",
"j 	c #4E89BB",
"k 	c #6099C8",
"l 	c #75ABD7",
"m 	c #8BBEE3",
"n 	c #86B9E0",
"o 	c #7FB4DD",
"p 	c #629ACA",
"q 	c #4F8ABC",
"r 	c #134D75",
"s 	c #1F5F8E",
"t 	c #7EB2DC",
"u 	c #96C7E8",
"v 	c #A7D3EE",
"w 	c #A6D2ED",
"x 	c #98C7E9",
"y 	c #7FB3DC",
"z 	c #619AC9",
"A 	c #20608E",
"B 	c #386D99",
"C 	c #5F97C6",
"D 	c #91C2E6",
"E 	c #A8D4EF",
"F 	c #C4E6F7",
"G 	c #C5E7F7",
"H 	c #B2DAF2",
"I 	c #98C7E8",
"J 	c #639BC9",
"K 	c #396D99",
"L 	c #6786A0",
"M 	c #447FB2",
"N 	c #90C0E2",
"O 	c #C6E7F7",
"P 	c #C2E5F6",
"Q 	c #98C6E5",
"R 	c #4985B6",
"S 	c #6989A3",
"T 	c #95A0AA",
"U 	c #3B709C",
"V 	c #4C88B7",
"W 	c #8EBDDD",
"X 	c #B1D8EF",
"Y 	c #B3D8EF",
"Z 	c #8BBADC",
"` 	c #528CBB",
" .	c #3A6F9A",
"..	c #919DA6",
"+.	c #CBCDCE",
"@.	c #7D94A8",
"#.	c #356E9A",
"$.	c #2B6B9B",
"%.	c #3B79A5",
"&.	c #3F7DA8",
"*.	c #2B6B9C",
"=.	c #336B99",
"-.	c #758DA0",
";.	c #BDBFC1",
">.	c #E7E7E7",
",.	c #D2D4D6",
"'.	c #94A5B2",
").	c #537FA2",
"!.	c #326FA0",
"~.	c #316D9E",
"{.	c #5682A4",
"].	c #8F9FAC",
"^.	c #C5C7C9",
"/.	c #E2E2E2",
". + @ # $ % & * = . ",
"- ; > , ' ) ! ~ ; { ",
"] ^ / ( ' ' _ : < [ ",
"} | 1 2 3 4 5 6 7 8 ",
"9 0 a b c d e f g h ",
"i j k l m n o p q r ",
"s e t u v w x y z A ",
"B C D E F G H I J K ",
"L M N F O G P Q R S ",
"T U V W X Y Z `  ...",
"+.@.#.$.%.&.*.=.-.;.",
">.,.'.).!.~.{.].^./."};
