/* XPM */
static char * shade_pressed_xpm[] = {
"10 12 82 1",
" 	c None",
".	c #EBEBEB",
"+	c #D8D8D8",
"@	c #A2A2A2",
"#	c #6B6B6B",
"$	c #444444",
"%	c #424242",
"&	c #696969",
"*	c #A5A5A5",
"=	c #EAEAEA",
"-	c #E0E0E0",
";	c #8E8E8E",
">	c #6F6F6F",
",	c #B7B7B7",
"'	c #DDDDDD",
")	c #DADADA",
"!	c #B6B6B6",
"~	c #727272",
"{	c #8D8D8D",
"]	c #E3E3E3",
"^	c #A3A3A3",
"/	c #636363",
"(	c #A0A0A0",
"_	c #D4D4D4",
":	c #DFDFDF",
"<	c #D6D6D6",
"[	c #9E9E9E",
"}	c #616161",
"|	c #A7A7A7",
"1	c #5F5F5F",
"2	c #838383",
"3	c #808080",
"4	c #AFAFAF",
"5	c #909090",
"6	c #6C6C6C",
"7	c #717171",
"8	c #A1A1A1",
"9	c #5D5D5D",
"0	c #747474",
"a	c #767676",
"b	c #7B7B7B",
"c	c #B5B5B5",
"d	c #737373",
"e	c #7F7F7F",
"f	c #828282",
"g	c #888888",
"h	c #CDCDCD",
"i	c #C4C4C4",
"j	c #8B8B8B",
"k	c #BBBBBB",
"l	c #7D7D7D",
"m	c #848484",
"n	c #B9B9B9",
"o	c #B2B2B2",
"p	c #D5D5D5",
"q	c #F7F7F7",
"r	c #F4F4F4",
"s	c #C1C1C1",
"t	c #9B9B9B",
"u	c #B8B8B8",
"v	c #858585",
"w	c #8C8C8C",
"x	c #9D9D9D",
"y	c #E2E2E2",
"z	c #FCFCFC",
"A	c #FBFBFB",
"B	c #FEFEFE",
"C	c #8A8A8A",
"D	c #787878",
"E	c #A4A4A4",
"F	c #D9D9D9",
"G	c #F1F1F1",
"H	c #F0F0F0",
"I	c #9F9F9F",
"J	c #BEBEBE",
"K	c #6E6E6E",
"L	c #6D6D6D",
"M	c #C6C6C6",
"N	c #E1E1E1",
"O	c #C7C7C7",
"P	c #C9C9C9",
"Q	c #E4E4E4",
".+@#$%&*+=",
"-;>,')!~{]",
"^/(_-:<[}|",
"12|!@|!*31",
"1[456784^9",
"0!*a23b4cd",
"ecfghi3jkl",
"mnopqrstuv",
"wxyzABqp[C",
"[DEFGHF(0I",
"J{KK3e~LwM",
"NO(2772[PQ"};
