/* XPM */
static char * shade_active_xpm[] = {
"10 12 78 1",
" 	c None",
".	c #EBEBEB",
"+	c #D8D8D8",
"@	c #A2A2A2",
"#	c #6B6B6B",
"$	c #444444",
"%	c #424242",
"&	c #696969",
"*	c #A5A5A5",
"=	c #EAEAEA",
"-	c #E0E0E0",
";	c #8E8E8E",
">	c #6F6F6F",
",	c #B7B7B7",
"'	c #DDDDDD",
")	c #DADADA",
"!	c #B6B6B6",
"~	c #727272",
"{	c #8D8D8D",
"]	c #E3E3E3",
"^	c #A3A3A3",
"/	c #636363",
"(	c #A0A0A0",
"_	c #D5D5D5",
":	c #E2E2E2",
"<	c #D6D6D6",
"[	c #9E9E9E",
"}	c #616161",
"|	c #A7A7A7",
"1	c #5F5F5F",
"2	c #838383",
"3	c #BEBEBE",
"4	c #C2C2C2",
"5	c #BFBFBF",
"6	c #B9B9B9",
"7	c #808080",
"8	c #B5B5B5",
"9	c #BDBDBD",
"0	c #C8C8C8",
"a	c #C7C7C7",
"b	c #B2B2B2",
"c	c #5D5D5D",
"d	c #747474",
"e	c #BBBBBB",
"f	c #CBCBCB",
"g	c #D7D7D7",
"h	c #D4D4D4",
"i	c #737373",
"j	c #DCDCDC",
"k	c #E9E9E9",
"l	c #EFEFEF",
"m	c #E6E6E6",
"n	c #D9D9D9",
"o	c #C4C4C4",
"p	c #7D7D7D",
"q	c #848484",
"r	c #F8F8F8",
"s	c #FCFCFC",
"t	c #FBFBFB",
"u	c #C3C3C3",
"v	c #858585",
"w	c #8C8C8C",
"x	c #FDFDFD",
"y	c #FEFEFE",
"z	c #E1E1E1",
"A	c #9F9F9F",
"B	c #8A8A8A",
"C	c #787878",
"D	c #A4A4A4",
"E	c #F1F1F1",
"F	c #F0F0F0",
"G	c #6E6E6E",
"H	c #7F7F7F",
"I	c #6D6D6D",
"J	c #C6C6C6",
"K	c #717171",
"L	c #C9C9C9",
"M	c #E4E4E4",
".+@#$%&*+=",
"-;>,')!~{]",
"^/(_::<[}|",
"12|3456*71",
"1[890a4b^c",
"defg''h0,i",
"70jkllmnop",
"qa.rstr]uv",
"w[mxtyszAB",
"[CDnEFn(dA",
"3{GG7H~IwJ",
"za(2KK2[LM"};
