/* XPM */
static char * stick_pressed_xpm[] = {
"10 12 96 2",
"  	c None",
". 	c #EBEBEB",
"+ 	c #D9D6D9",
"@ 	c #AB99AB",
"# 	c #805480",
"$ 	c #5D285E",
"% 	c #5B285B",
"& 	c #7E527E",
"* 	c #AD9DAD",
"= 	c #EAEAEA",
"- 	c #E2DFE2",
"; 	c #9C819C",
"> 	c #8A538A",
", 	c #C7A6C7",
"' 	c #E7D1E8",
") 	c #E5CEE5",
"! 	c #C5A5C5",
"~ 	c #8C578C",
"{ 	c #9B7F9B",
"] 	c #E5E2E5",
"^ 	c #AB9BAB",
"/ 	c #804480",
"( 	c #AD80AD",
"_ 	c #CEAFCF",
": 	c #C9AAC9",
"< 	c #CBADCC",
"[ 	c #CFB0CF",
"} 	c #AA7DAA",
"| 	c #7F4280",
"1 	c #B09FB0",
"2 	c #734A74",
"3 	c #9D689E",
"4 	c #BD99BD",
"5 	c #AD85AD",
"6 	c #915792",
"7 	c #975D97",
"8 	c #BB95BB",
"9 	c #BB96BB",
"0 	c #9A649B",
"a 	c #7B417C",
"b 	c #B18AB2",
"c 	c #B993B9",
"d 	c #975D98",
"e 	c #935893",
"f 	c #925792",
"g 	c #9A669B",
"h 	c #C19EC1",
"i 	c #B590B5",
"j 	c #793F79",
"k 	c #905790",
"l 	c #C6A4C7",
"m 	c #A270A2",
"n 	c #986398",
"o 	c #CFB2CF",
"p 	c #C9A8C9",
"q 	c #945C94",
"r 	c #A77BA8",
"s 	c #C5A3C6",
"t 	c #8F568F",
"u 	c #976598",
"v 	c #956295",
"w 	c #926C93",
"x 	c #936E94",
"y 	c #917F91",
"z 	c #9F6E9F",
"A 	c #9C6C9D",
"B 	c #8E7C8E",
"C 	c #A09CA0",
"D 	c #805F80",
"E 	c #9D6D9D",
"F 	c #BB98BC",
"G 	c #C29FC2",
"H 	c #BE9ABE",
"I 	c #9C6C9C",
"J 	c #7E5E7F",
"K 	c #A19DA1",
"L 	c #BEBEBE",
"M 	c #908A90",
"N 	c #7C607C",
"O 	c #845784",
"P 	c #9A649A",
"Q 	c #99639A",
"R 	c #875B87",
"S 	c #7B5F7B",
"T 	c #908990",
"U 	c #C6C6C6",
"V 	c #E1E1E1",
"W 	c #C7C7C7",
"X 	c #A19FA1",
"Y 	c #877E88",
"Z 	c #786979",
"` 	c #786978",
" .	c #887E88",
"..	c #9F9D9F",
"+.	c #C9C9C9",
"@.	c #E4E4E4",
". + @ # $ % & * + = ",
"- ; > , ' ) ! ~ { ] ",
"^ / ( _ : < [ } | 1 ",
"2 3 4 5 6 7 8 9 0 2 ",
"a b c d e f g h i j ",
"k l m n o p q r s t ",
"u l m n o p q r s v ",
"w b c d e f g h i x ",
"y z 4 5 6 7 8 9 A B ",
"C D E F G s H I J K ",
"L M N O P Q R S T U ",
"V W X Y Z `  ...+.@."};
