/* XPM */
static char * stick_active_xpm[] = {
"10 12 114 2",
"  	c None",
". 	c #EBEBEB",
"+ 	c #D9D6D9",
"@ 	c #AB99AB",
"# 	c #805480",
"$ 	c #5D285E",
"% 	c #5B285B",
"& 	c #7E527E",
"* 	c #AD9DAD",
"= 	c #EAEAEA",
"- 	c #E2DFE2",
"; 	c #9C819C",
"> 	c #8A538A",
", 	c #C7A6C7",
"' 	c #E7D1E8",
") 	c #E5CEE5",
"! 	c #C5A5C5",
"~ 	c #8C578C",
"{ 	c #9B7F9B",
"] 	c #E5E2E5",
"^ 	c #AB9BAB",
"/ 	c #804480",
"( 	c #B58AB5",
"_ 	c #E1C7E1",
": 	c #EBD7EC",
"< 	c #EBD7EB",
"[ 	c #E2C8E2",
"} 	c #B287B3",
"| 	c #7F4280",
"1 	c #B09FB0",
"2 	c #734A74",
"3 	c #9D689E",
"4 	c #B994B9",
"5 	c #CEAECE",
"6 	c #D1B1D1",
"7 	c #CEAFCF",
"8 	c #C9A8C9",
"9 	c #B792B7",
"0 	c #9A649B",
"a 	c #7B417C",
"b 	c #B18AB2",
"c 	c #C6A4C6",
"d 	c #CCACCC",
"e 	c #D6B8D7",
"f 	c #D5B6D6",
"g 	c #D1B1D2",
"h 	c #C2A0C3",
"i 	c #B591B5",
"j 	c #793F79",
"k 	c #905790",
"l 	c #CBAACB",
"m 	c #D9BBD9",
"n 	c #E3C9E3",
"o 	c #E8D1E9",
"p 	c #E8D0E8",
"q 	c #E1C6E1",
"r 	c #D6B8D6",
"s 	c #C7A5C7",
"t 	c #8F568F",
"u 	c #986699",
"v 	c #E7CFE7",
"w 	c #F2E0F2",
"x 	c #F5E7F6",
"y 	c #EFDDEF",
"z 	c #E5CCE5",
"A 	c #D3B4D3",
"B 	c #966396",
"C 	c #967197",
"D 	c #D4B9D5",
"E 	c #F3E2F3",
"F 	c #FBF4FB",
"G 	c #FDFAFD",
"H 	c #FDF9FD",
"I 	c #EDD8ED",
"J 	c #D1B3D1",
"K 	c #948494",
"L 	c #B189B2",
"M 	c #EDDFED",
"N 	c #FEFCFE",
"O 	c #FDF8FD",
"P 	c #FEFDFE",
"Q 	c #EAD8EA",
"R 	c #B28BB2",
"S 	c #928292",
"T 	c #A09CA0",
"U 	c #856A85",
"V 	c #B791B7",
"W 	c #E1D1E1",
"X 	c #F5ECF5",
"Y 	c #F5EBF5",
"Z 	c #E2CFE2",
"` 	c #B38BB3",
" .	c #826683",
"..	c #A19DA1",
"+.	c #BEBEBE",
"@.	c #908A90",
"#.	c #7C607C",
"$.	c #845784",
"%.	c #9A649A",
"&.	c #99639A",
"*.	c #875B87",
"=.	c #7B5F7B",
"-.	c #908990",
";.	c #C6C6C6",
">.	c #E1E1E1",
",.	c #C7C7C7",
"'.	c #A19FA1",
").	c #877E88",
"!.	c #786979",
"~.	c #786978",
"{.	c #887E88",
"].	c #9F9D9F",
"^.	c #C9C9C9",
"/.	c #E4E4E4",
". + @ # $ % & * + = ",
"- ; > , ' ) ! ~ { ] ",
"^ / ( _ : < [ } | 1 ",
"2 3 4 5 6 7 8 9 0 2 ",
"a b c d e f g h i j ",
"k l m n o p q r s t ",
"u r v w x x y z A B ",
"C D E F G H F I J C ",
"K L M N O P H Q R S ",
"T U V W X Y Z `  ...",
"+.@.#.$.%.&.*.=.-.;.",
">.,.'.).!.~.{.].^./."};
