/* XPM */
static char * stick_inactive_xpm[] = {
"10 12 108 2",
"  	c None",
". 	c #9EAECD",
"+ 	c #97A6C5",
"@ 	c #8F9DBB",
"# 	c #8190A7",
"$ 	c #7E8DA3",
"% 	c #808FA6",
"& 	c #8695AC",
"* 	c #8F9EB5",
"= 	c #9BAAC1",
"- 	c #9EAECE",
"; 	c #9AABCA",
"> 	c #90A0BD",
", 	c #8D9EB9",
"' 	c #A9B9CE",
") 	c #AFBFD4",
"! 	c #B0C0D4",
"~ 	c #A3B2C7",
"{ 	c #91A1B5",
"] 	c #8D9DB2",
"^ 	c #98AACB",
"/ 	c #8DA2B8",
"( 	c #8A9DB1",
"_ 	c #9CB0C1",
": 	c #ABBDD2",
"< 	c #B0C1D6",
"[ 	c #B1C3D8",
"} 	c #ACBED3",
"| 	c #9CAEC3",
"1 	c #8799AE",
"2 	c #8FA4BE",
"3 	c #7E90A7",
"4 	c #90A0B5",
"5 	c #9FAEC0",
"6 	c #A2B2C7",
"7 	c #A6B5CB",
"8 	c #A5B5CA",
"9 	c #A1B1C6",
"0 	c #9AAABF",
"a 	c #8F9FB4",
"b 	c #8193AB",
"c 	c #8797B0",
"d 	c #9CAAC0",
"e 	c #A5B1C5",
"f 	c #A5B4C9",
"g 	c #A9B8CD",
"h 	c #A7B6CB",
"i 	c #9CABC0",
"j 	c #8697AF",
"k 	c #90A0B8",
"l 	c #A7B5CB",
"m 	c #ACB9CD",
"n 	c #ADBCD1",
"o 	c #B1C0D5",
"p 	c #AFBED3",
"q 	c #ABBACF",
"r 	c #8D9EB7",
"s 	c #8C9CB5",
"t 	c #A9B7CD",
"u 	c #AEBBCF",
"v 	c #B3C2D7",
"w 	c #ACBBD0",
"x 	c #A6B5CA",
"y 	c #8B9CB4",
"z 	c #8C9CB4",
"A 	c #A8B6CC",
"B 	c #B4C1D5",
"C 	c #B6C5DA",
"D 	c #B7C6DB",
"E 	c #B2C1D6",
"F 	c #A8B7CC",
"G 	c #8D9CB5",
"H 	c #9BA9BF",
"I 	c #B4C0D4",
"J 	c #B9C8DD",
"K 	c #BAC9DE",
"L 	c #BBCADF",
"M 	c #9AA9BE",
"N 	c #8E9FB8",
"O 	c #879AB2",
"P 	c #879AB0",
"Q 	c #97A9BD",
"R 	c #AABACE",
"S 	c #B0C0D5",
"T 	c #B0C1D5",
"U 	c #A8B8CD",
"V 	c #96A7BB",
"W 	c #8595AA",
"X 	c #869AB2",
"Y 	c #8DA0BE",
"Z 	c #8598B6",
"` 	c #7E92AF",
" .	c #8493AE",
"..	c #8B9AB5",
"+.	c #8C9BB6",
"@.	c #8190AB",
"#.	c #8796B1",
"$.	c #8DA1C0",
"%.	c #9DAACC",
"&.	c #96A3C5",
"*.	c #919EC0",
"=.	c #8896B4",
"-.	c #8592B0",
";.	c #8391AF",
">.	c #8795B3",
",.	c #919FBD",
"'.	c #9AA7C5",
").	c #9BA9CB",
". + @ # $ % & * = - ",
"; > , ' ) ! ~ { ] ^ ",
"/ ( _ : < [ } | 1 2 ",
"3 4 5 6 7 8 9 0 a b ",
"c d e f g g h ~ i j ",
"k l m n o o p q f r ",
"s t u o v o p w x y ",
"z A B C D C C E F s ",
"G H I J K L L p M N ",
"O P Q R S T U V W X ",
"Y Z `  ...+. .@.#.$.",
"%.&.*.=.-.;.>.,.'.)."};
