/* XPM */
static char * title_5_inactive_xpm[] = {
"3 12 12 1",
" 	c None",
".	c #A0BBD8",
"+	c #9EB2CC",
"@	c #9EAFD2",
"#	c #A1B7D3",
"$	c #9BAFCC",
"%	c #A2B5D3",
"&	c #9CAFCD",
"*	c #9DB0CE",
"=	c #95ACCA",
"-	c #9EAFCB",
";	c #92A8CA",
"...",
"+++",
"@@@",
"###",
"$$$",
"%%%",
"&&&",
"***",
"***",
"===",
"---",
";;;"};
