/* XPM */
static char * title_4_active_xpm[] = {
"3 12 11 1",
" 	c None",
".	c #FFFFFF",
"+	c #F2F2F2",
"@	c #EEEEEE",
"#	c #F9F9F9",
"$	c #ECECEC",
"%	c #F7F7F7",
"&	c #EBEBEB",
"*	c #DFDFDF",
"=	c #E5E5E5",
"-	c #D2D2D2",
"...",
"+++",
"@@@",
"###",
"$$$",
"%%%",
"&&&",
"$$$",
"@@@",
"***",
"===",
"---"};
