/* XPM */
static char * top_left_inactive_xpm[] = {
"3 12 24 1",
" 	c None",
".	c #A1BBD7",
"+	c #A0B7D2",
"@	c #9EB2CC",
"#	c #A2BAD9",
"$	c #9EB2D4",
"%	c #9EAFD2",
"&	c #A3BAD8",
"*	c #A0B8D4",
"=	c #A1B7D3",
"-	c #9CB2CF",
";	c #9BAFCC",
">	c #A1B6D5",
",	c #A2B5D3",
"'	c #9DB2D0",
")	c #9CAFCD",
"!	c #9DB0CE",
"~	c #9EB3D1",
"{	c #97B0CD",
"]	c #95ACCA",
"^	c #9FB1CE",
"/	c #9EAFCB",
"(	c #95ACCD",
"_	c #92A8CA",
"  .",
" +@",
"#$%",
"&*=",
"&-;",
"&>,",
"&')",
"&'!",
"&~!",
"&{]",
"&^/",
"&(_"};
