/* XPM */
static char * top_right_inactive_xpm[] = {
"3 12 25 1",
" 	c None",
".	c #A1BBD7",
"+	c #9EB2CC",
"@	c #9FB5CE",
"#	c #9EAFD2",
"$	c #9EB0D1",
"%	c #98AFCB",
"&	c #A1B7D3",
"*	c #A0B6D1",
"=	c #95ACCA",
"-	c #9BAFCC",
";	c #9CB0CB",
">	c #A2B5D3",
",	c #A1B4D1",
"'	c #9CAFCD",
")	c #9CAFCC",
"!	c #9DB0CE",
"~	c #9DB0CD",
"{	c #97ADCA",
"]	c #9EAECB",
"^	c #9EAFCA",
"/	c #94ABCA",
"(	c #91A8CA",
"_	c #92A8CA",
":	c #90A8CA",
".  ",
"+@ ",
"#$%",
"&*=",
"-;=",
">,=",
"')=",
"!~=",
"!~=",
"={=",
"]^/",
"(_:"};
