/* XPM */
static char * top_right_active_xpm[] = {
"3 12 23 1",
" 	c None",
".	c #FFFFFF",
"+	c #F3F3F3",
"@	c #DBDBDB",
"#	c #EEEEEE",
"$	c #E7E7E7",
"%	c #C1C1C1",
"&	c #F9F9F9",
"*	c #B9B9B9",
"=	c #ECECEC",
"-	c #E4E4E4",
";	c #F7F7F7",
">	c #EDEDED",
",	c #EBEBEB",
"'	c #E3E3E3",
")	c #BABABA",
"!	c #E6E6E6",
"~	c #DFDFDF",
"{	c #D9D9D9",
"]	c #E5E5E5",
"^	c #DEDEDE",
"/	c #D2D2D2",
"(	c #D0D0D0",
".  ",
"+@ ",
"#$%",
"&#*",
"=-*",
";>*",
",'*",
"=-)",
"#!*",
"~{*",
"]^*",
"/()"};
