/* XPM */
static char * top_left_active_xpm[] = {
"3 12 23 1",
" 	c None",
".	c #FFFFFF",
"+	c #FAFAFA",
"@	c #F3F3F3",
"#	c #FBFBFB",
"$	c #EEEEEE",
"%	c #FDFDFD",
"&	c #F9F9F9",
"*	c #EFEFEF",
"=	c #ECECEC",
"-	c #FCFCFC",
";	c #F8F8F8",
">	c #F7F7F7",
",	c #EBEBEB",
"'	c #F0F0F0",
")	c #F6F6F6",
"!	c #E3E3E3",
"~	c #DFDFDF",
"{	c #E8E8E8",
"]	c #E5E5E5",
"^	c #F2F2F2",
"/	c #D8D8D8",
"(	c #D2D2D2",
"  .",
" +@",
"#@$",
"%+&",
"+*=",
"-;>",
"&$,",
"&$=",
"+'$",
")!~",
";{]",
"^/("};
